<svg width="45" height="45" viewBox="0 0 45 45" fill="none" xmlns="http://www.w3.org/2000/svg">
<path d="M38.7028 37.8788C39.9937 36.3966 40.7812 34.4644 40.7812 32.3438C40.7812 27.6834 37.0041 23.9062 32.3438 23.9062C31.6617 23.9062 31.0064 24.0103 30.3708 24.1636L20.8378 14.6306C20.9897 13.9936 21.0938 13.3383 21.0938 12.6562C21.0938 7.99594 17.3166 4.21875 12.6562 4.21875C10.5356 4.21875 8.60344 5.00625 7.12125 6.29719L12.0741 11.25L11.25 12.0741L6.29719 7.12125C5.00625 8.60344 4.21875 10.5356 4.21875 12.6562C4.21875 17.3166 7.99594 21.0938 12.6562 21.0938C13.3383 21.0938 13.9936 20.9897 14.6292 20.8364L24.1622 30.3694C24.0103 31.0064 23.9062 31.6617 23.9062 32.3438C23.9062 37.0041 27.6834 40.7812 32.3438 40.7812C34.4644 40.7812 36.3966 39.9937 37.8788 38.7028L32.9259 33.75L33.75 32.9259L38.7028 37.8788ZM33.0989 37.8998C32.8514 37.935 32.6025 37.9688 32.3438 37.9688C29.2416 37.9688 26.7188 35.4459 26.7188 32.3438C26.7188 31.3678 26.9916 30.4622 27.4303 29.6606L15.338 17.5683C14.5378 18.0084 13.6322 18.2812 12.6562 18.2812C9.55406 18.2812 7.03125 15.7584 7.03125 12.6562C7.03125 12.3975 7.065 12.1486 7.10016 11.9011L11.25 16.0509L16.0509 11.25L11.9011 7.10016C12.1486 7.065 12.3975 7.03125 12.6562 7.03125C15.7584 7.03125 18.2812 9.55406 18.2812 12.6562C18.2812 13.6322 18.0084 14.5378 17.5697 15.3394L29.662 27.4317C30.4622 26.9916 31.3678 26.7188 32.3438 26.7188C35.4459 26.7188 37.9688 29.2416 37.9688 32.3438C37.9688 32.6025 37.935 32.8514 37.8998 33.0989L33.75 28.9491L28.9491 33.75L33.0989 37.8998Z" fill="white"/>
</svg>
