<svg width="60" height="60" viewBox="0 0 60 60" fill="none" xmlns="http://www.w3.org/2000/svg">
<g clip-path="url(#clip0_6_22)">
<path d="M58.4929 37.3325L54.1361 36.6989C53.8631 36.678 53.6279 36.5065 53.5234 36.2536L52.1108 32.8451C52.0052 32.5931 52.0492 32.3045 52.228 32.0975L54.8346 28.596C55.2486 28.1107 55.2215 27.3873 54.7697 26.9357L52.707 24.8739C52.2563 24.4222 51.5317 24.3929 51.0477 24.8091L47.5451 27.4145C47.3391 27.5924 47.0485 27.6383 46.7974 27.5338L43.388 26.1203C43.1359 26.0168 42.9635 25.7774 42.9415 25.5076L42.31 21.1519C42.2598 20.5141 41.7287 20.0228 41.091 20.0228H38.1738C37.5352 20.0228 37.004 20.5141 36.9549 21.1519L36.3212 25.5076C36.3013 25.7795 36.1288 26.0168 35.8768 26.1203L32.4663 27.5338C32.2143 27.6383 31.9258 27.5924 31.7177 27.4145L28.2171 24.8091C27.7331 24.394 27.0096 24.4221 26.5569 24.8739L24.4951 26.9357C24.0435 27.3873 24.0163 28.1108 24.4302 28.596L27.0358 32.0985C27.2125 32.3045 27.2596 32.5941 27.154 32.8451L25.7414 36.2536C25.639 36.5066 25.4006 36.678 25.1298 36.7001L20.771 37.3327C20.1353 37.3829 19.6439 37.914 19.6439 38.5528V41.4688C19.6439 42.1065 20.1354 42.6398 20.771 42.6879L25.1298 43.3205C25.4006 43.3425 25.639 43.5149 25.7414 43.767L27.154 47.1755C27.2596 47.4285 27.2126 47.718 27.0358 47.9241L24.4302 51.4267C24.0162 51.9118 24.0434 52.6331 24.4951 53.087L26.5569 55.1488C27.0096 55.6004 27.7331 55.6276 28.2171 55.2125L31.7177 52.6059C31.9258 52.4304 32.2143 52.3833 32.4663 52.489L35.8768 53.9004C36.1289 54.0061 36.3013 54.2423 36.3224 54.5152L36.955 58.8709C37.0051 59.5076 37.5353 60.0001 38.174 60.0001H41.0911C41.7299 60.0001 42.2599 59.5076 42.3101 58.8709L42.9416 54.5152C42.9636 54.2423 43.136 54.0061 43.3881 53.9004L46.7986 52.489C47.0496 52.3833 47.3402 52.4304 47.5461 52.6059L51.0478 55.2125C51.5318 55.6276 52.2565 55.6004 52.7071 55.1488L54.7698 53.087C55.2226 52.6331 55.2488 51.9118 54.8347 51.4267L52.2281 47.9241C52.0525 47.718 52.0055 47.4285 52.111 47.1755L53.5235 43.767C53.6281 43.5149 53.8633 43.3425 54.1362 43.3205L58.493 42.6879C59.1298 42.6398 59.6211 42.1065 59.6211 41.4688V38.5528C59.621 37.9139 59.1297 37.3828 58.4929 37.3325ZM44.425 44.8041C43.1441 46.0828 41.4431 46.7876 39.6322 46.7876C37.8224 46.7876 36.1192 46.0828 34.8395 44.8041C33.5598 43.5223 32.854 41.8212 32.854 40.0103C32.854 38.2004 33.5597 36.4983 34.8395 35.2185C36.1192 33.9366 37.8224 33.234 39.6322 33.234C41.4433 33.234 43.1442 33.9366 44.425 35.2185C45.7047 36.4982 46.4094 38.2004 46.4094 40.0103C46.4094 41.8212 45.7048 43.5223 44.425 44.8041Z" fill="white"/>
<path d="M21.9552 29.5495C22.4277 29.3802 22.6881 28.8762 22.5554 28.3931L21.8643 25.0118C21.809 24.8047 21.8727 24.5842 22.0306 24.4399L24.1707 22.4921C24.3275 22.3489 24.5556 22.3061 24.7532 22.3813L28.0299 23.3734C28.4973 23.5501 29.0242 23.3389 29.2376 22.8852L30.2099 20.8161C30.4252 20.3613 30.2528 19.8218 29.8178 19.575L26.9656 17.6836C26.7804 17.577 26.6685 17.3752 26.6801 17.1619L26.816 14.272C26.8275 14.0577 26.955 13.8684 27.1486 13.7805L30.1964 12.1547C30.6532 11.9508 30.8739 11.426 30.7045 10.9576L29.9307 8.80476C29.7604 8.3332 29.2563 8.07187 28.7734 8.20465L25.391 8.89359C25.184 8.95219 24.9654 8.88738 24.8202 8.72836L22.8732 6.58945C22.7279 6.43043 22.6841 6.20683 22.7613 6.00609L23.7537 2.7314C23.9303 2.26195 23.7192 1.73601 23.2644 1.52367L21.1963 0.550311C20.7425 0.336913 20.2009 0.50742 19.9532 0.943358L18.0628 3.7957C17.9571 3.98086 17.7554 4.09254 17.542 4.08223L14.6522 3.94523C14.4389 3.93586 14.2465 3.80402 14.1598 3.6116L12.536 0.564959C12.33 0.108163 11.8072 -0.112619 11.3367 0.0568345L9.18504 0.831561C8.71348 1.00101 8.45215 1.50398 8.58598 1.98691L9.27598 5.37035C9.33247 5.57519 9.26872 5.79691 9.10981 5.94012L6.9695 7.88894C6.81059 8.03215 6.58583 8.07609 6.38508 8.00086L3.1104 7.00758C2.64305 6.82992 2.11712 7.0432 1.90278 7.49683L0.930357 9.56508C0.717076 10.0188 0.887467 10.5605 1.32247 10.8071L4.17469 12.6986C4.36079 12.8043 4.47165 13.005 4.46016 13.2183L4.32422 16.1081C4.3159 16.3235 4.18512 16.5117 3.99176 16.5995L0.943951 18.2252C0.48692 18.4302 0.266373 18.954 0.435826 19.4224L1.21055 21.5752C1.37989 22.0467 1.88391 22.308 2.3659 22.1764L5.7504 21.4843C5.95536 21.4278 6.17696 21.4927 6.32016 21.6516L8.26688 23.7908C8.41219 23.9497 8.45415 24.1755 8.37868 24.3752L7.38657 27.6499C7.2109 28.1183 7.42219 28.6443 7.87583 28.8575L9.94395 29.8298C10.3988 30.0442 10.9392 29.8717 11.1871 29.4377L13.0764 26.5845C13.183 26.4005 13.3838 26.2875 13.5981 26.2999L16.4881 26.4359C16.7024 26.4464 16.8927 26.5739 16.9815 26.7694L18.6042 29.815C18.8113 30.272 19.333 30.4946 19.8034 30.3252L21.9552 29.5495ZM17.3706 20.1909C16.0354 20.6708 14.5916 20.6039 13.3065 19.9996C12.0216 19.3952 11.0513 18.3267 10.5693 16.9904C10.0894 15.6543 10.1563 14.2114 10.7607 12.9275C11.365 11.6415 12.4345 10.6712 13.7698 10.1904C15.1059 9.70933 16.5488 9.77625 17.8327 10.3827C19.1166 10.9849 20.089 12.0536 20.5709 13.3897C21.0509 14.726 20.9829 16.1678 20.3796 17.4529C19.7732 18.7366 18.7056 19.7089 17.3706 20.1909Z" fill="white"/>
</g>
<defs>
<clipPath id="clip0_6_22">
<rect width="60" height="60" fill="white"/>
</clipPath>
</defs>
</svg>
