<svg width="45" height="45" viewBox="0 0 45 45" fill="none" xmlns="http://www.w3.org/2000/svg">
<path d="M42.435 21.2435C41.8254 20.7204 36.3698 16.1318 32.573 16.1318C27.8395 16.1318 25.5544 20.2598 25.0059 22.443L24.923 22.777C24.2168 23.1798 23.5542 23.6546 22.9458 24.1938C22.2968 24.7727 21.7192 25.4271 21.2252 26.1429C21.1859 25.9552 21.1472 25.7674 21.0994 25.586C20.5411 23.5462 19.6453 21.742 18.6799 19.9884C17.8995 18.6026 17.0374 17.2772 16.1346 15.9841L16.1789 15.8948C17.1239 13.988 17.9585 9.3832 14.3592 5.60953C11.4279 2.53477 3.78984 1.65516 2.92922 1.56656L1.40625 1.40625L1.55602 2.97844C1.6418 3.88125 2.47781 11.8751 5.40422 14.9421C7.03336 16.65 9.07102 17.5535 11.2978 17.5535C13.1273 17.5535 14.6355 16.9474 15.3077 16.6254C16.1107 17.9247 16.8515 19.2614 17.5275 20.6311C18.3642 22.3671 19.1243 24.177 19.5075 25.9847C19.5996 26.434 18.9661 43.5938 18.9661 43.5938H22.0978C22.0978 43.5938 21.6084 29.4321 21.6949 29.0918C22.0605 27.6764 22.8565 26.3454 23.9055 25.2612C24.3564 24.8004 24.8493 24.3828 25.3779 24.0138C26.2941 25.8532 28.5525 28.3437 32.573 28.3437C36.3698 28.3437 41.8254 23.7558 42.435 23.2327L43.5938 22.2377L42.435 21.2435Z" fill="white"/>
</svg>
