<svg width="45" height="45" viewBox="0 0 45 45" fill="none" xmlns="http://www.w3.org/2000/svg">
<path d="M34.6879 7.01999V38.3116C34.6873 38.6097 34.5686 38.8955 34.3577 39.1064C34.1469 39.3172 33.8611 39.4359 33.5629 39.4366H11.4395C11.1413 39.4359 10.8555 39.3172 10.6447 39.1064C10.4338 38.8955 10.3151 38.6097 10.3145 38.3116V7.01999C10.3151 6.72181 10.4338 6.43603 10.6447 6.22518C10.8555 6.01434 11.1413 5.89561 11.4395 5.89499H33.5653C33.8634 5.89561 34.1492 6.01434 34.3601 6.22518C34.5709 6.43603 34.6873 6.72181 34.6879 7.01999ZM32.0637 8.5192H12.9363V14.9755H32.0637V8.5192ZM16.9413 20.3874C16.9407 19.8907 16.7431 19.4145 16.3919 19.0633C16.0407 18.7121 15.5646 18.5146 15.0679 18.5139H15.0608C14.809 18.505 14.558 18.5468 14.3228 18.637C14.0875 18.7272 13.8728 18.8638 13.6915 19.0388C13.5103 19.2138 13.3661 19.4234 13.2676 19.6553C13.1691 19.8872 13.1184 20.1366 13.1184 20.3885C13.1184 20.6405 13.1691 20.8898 13.2676 21.1217C13.3661 21.3536 13.5103 21.5633 13.6915 21.7383C13.8728 21.9132 14.0875 22.0499 14.3228 22.1401C14.558 22.2302 14.809 22.2721 15.0608 22.2631H15.0679C15.565 22.2625 16.0415 22.0646 16.3928 21.7129C16.744 21.3612 16.9413 20.8844 16.9413 20.3874ZM16.9413 26.6258C16.9407 26.1291 16.7431 25.653 16.3919 25.3018C16.0407 24.9506 15.5646 24.753 15.0679 24.7524H15.0608C14.809 24.7434 14.558 24.7853 14.3228 24.8754C14.0875 24.9656 13.8728 25.1023 13.6915 25.2772C13.5103 25.4522 13.3661 25.6619 13.2676 25.8938C13.1691 26.1257 13.1184 26.375 13.1184 26.627C13.1184 26.8789 13.1691 27.1283 13.2676 27.3602C13.3661 27.5921 13.5103 27.8017 13.6915 27.9767C13.8728 28.1517 14.0875 28.2883 14.3228 28.3785C14.558 28.4687 14.809 28.5105 15.0608 28.5016H15.0679C15.565 28.5009 16.0415 28.303 16.3928 27.9513C16.744 27.5996 16.9413 27.1229 16.9413 26.6258ZM16.9413 32.8642C16.9407 32.3675 16.7431 31.8914 16.3919 31.5402C16.0407 31.189 15.5646 30.9914 15.0679 30.9908H15.0608C14.809 30.9818 14.558 31.0237 14.3228 31.1139C14.0875 31.204 13.8728 31.3407 13.6915 31.5156C13.5103 31.6906 13.3661 31.9003 13.2676 32.1322C13.1691 32.3641 13.1184 32.6134 13.1184 32.8654C13.1184 33.1173 13.1691 33.3667 13.2676 33.5986C13.3661 33.8305 13.5103 34.0402 13.6915 34.2151C13.8728 34.3901 14.0875 34.5267 14.3228 34.6169C14.558 34.7071 14.809 34.7489 15.0608 34.74H15.0679C15.565 34.7394 16.0415 34.5415 16.3928 34.1897C16.744 33.838 16.9413 33.3613 16.9413 32.8642ZM24.1413 26.6258C24.1407 26.1287 23.9428 25.6522 23.5911 25.3009C23.2394 24.9497 22.7626 24.7524 22.2655 24.7524C22.0138 24.7434 21.7604 24.7853 21.5251 24.8754C21.2899 24.9656 21.0752 25.1023 20.8939 25.2772C20.7126 25.4522 20.5684 25.6619 20.47 25.8938C20.3715 26.1257 20.3207 26.375 20.3207 26.627C20.3207 26.8789 20.3715 27.1283 20.47 27.3602C20.5684 27.5921 20.7126 27.8017 20.8939 27.9767C21.0752 28.1517 21.2899 28.2883 21.5251 28.3785C21.7604 28.4687 22.0114 28.5105 22.2632 28.5016C22.7607 28.5016 23.2378 28.3039 23.5896 27.9522C23.9413 27.6004 24.1413 27.1233 24.1413 26.6258ZM24.1413 32.8642C24.1407 32.3671 23.9428 31.8906 23.5911 31.5393C23.2394 31.1881 22.7626 30.9908 22.2655 30.9908C22.0138 30.9818 21.7604 31.0237 21.5251 31.1139C21.2899 31.204 21.0752 31.3407 20.8939 31.5156C20.7126 31.6906 20.5684 31.9003 20.47 32.1322C20.3715 32.3641 20.3207 32.6134 20.3207 32.8654C20.3207 33.1173 20.3715 33.3667 20.47 33.5986C20.5684 33.8305 20.7126 34.0402 20.8939 34.2151C21.0752 34.3901 21.2899 34.5267 21.5251 34.6169C21.7604 34.7071 22.0114 34.7489 22.2632 34.74C22.7607 34.74 23.2378 34.5424 23.5896 34.1906C23.9413 33.8388 24.1413 33.3617 24.1413 32.8642ZM24.255 20.3874C24.2544 19.8907 24.0568 19.4145 23.7056 19.0633C23.3544 18.7121 22.8783 18.5146 22.3816 18.5139H22.3697C21.8841 18.5312 21.4241 18.7363 21.0866 19.0859C20.7492 19.4356 20.5606 19.9026 20.5606 20.3885C20.5606 20.8745 20.7492 21.3415 21.0866 21.6911C21.4241 22.0408 21.8841 22.2459 22.3697 22.2631H22.3816C22.8787 22.2625 23.3552 22.0646 23.7064 21.7129C24.0577 21.3612 24.255 20.8844 24.255 20.3874ZM31.564 20.3874C31.5633 19.8903 31.3654 19.4138 31.0137 19.0625C30.662 18.7112 30.1852 18.5139 29.6882 18.5139H29.6834C29.1978 18.5312 28.7378 18.7363 28.4003 19.0859C28.0629 19.4356 27.8743 19.9026 27.8743 20.3885C27.8743 20.8745 28.0629 21.3415 28.4003 21.6911C28.7378 22.0408 29.1978 22.2459 29.6834 22.2631H29.6882C30.1857 22.2631 30.6628 22.0655 31.0146 21.7137C31.3663 21.362 31.564 20.8848 31.564 20.3874ZM31.564 26.5145C31.564 26.017 31.3663 25.5399 31.0146 25.1881C30.6628 24.8363 30.1857 24.6387 29.6882 24.6387C29.1907 24.6387 28.7136 24.8363 28.3618 25.1881C28.01 25.5399 27.8124 26.017 27.8124 26.5145V32.8642C27.8124 33.3617 28.01 33.8388 28.3618 34.1906C28.7136 34.5424 29.1907 34.74 29.6882 34.74C30.1857 34.74 30.6628 34.5424 31.0146 34.1906C31.3663 33.8388 31.564 33.3617 31.564 32.8642V26.5145Z" fill="white"/>
</svg>
