<svg width="45" height="45" viewBox="0 0 45 45" fill="none" xmlns="http://www.w3.org/2000/svg">
<g clip-path="url(#clip0_6_11)">
<path d="M37.6353 38.5627C37.0776 38.3285 36.5398 38.193 36.0851 38.1479C35.9517 36.1124 34.8667 33.5097 34.8667 31.8282C34.8667 26.9821 34.8667 17.289 34.8667 12.4429C34.8667 10.4053 34.3647 6.33645 33.2913 4.15708C33.6851 3.94387 34.0895 3.64874 34.4666 3.27168C35.5862 2.15312 36.042 0.794031 35.4853 0.237373C34.9287 -0.319285 33.5696 0.136544 32.45 1.25511C31.99 1.71409 31.6507 2.21088 31.4386 2.67826C29.5459 2.32641 26.1797 2.66356 23.8638 2.66356H19.2793C16.4792 2.66356 12.9838 1.90104 10.9756 3.33575C10.8181 2.99335 10.607 2.62995 10.336 2.2676C9.49258 1.14168 8.45909 0.490495 8.02742 0.813986C7.59575 1.13748 7.93079 2.31171 8.77418 3.43763C9.14179 3.92917 9.54405 4.32198 9.91901 4.59086C8.87501 6.54021 8.27739 10.4253 8.27739 12.4439C8.27739 17.29 8.27739 26.9842 8.27739 31.8293C8.27739 33.6095 7.38464 36.1638 7.34473 38.2203C7.00128 38.2928 6.63157 38.4041 6.25242 38.5638C4.9553 39.1099 4.0741 39.9544 4.28311 40.4512C4.49002 40.9438 5.71046 40.9049 7.00758 40.3587C7.23655 40.2621 7.4466 40.156 7.64511 40.0436C7.79215 40.3692 7.99381 40.657 8.27634 40.8944C10.3433 42.6263 16.6094 41.6065 19.2793 41.6065H23.8638C26.7931 41.6065 33.3049 42.5255 35.4265 40.4869C35.624 40.2957 35.7637 40.0689 35.8698 39.8199C36.1596 40.0142 36.4989 40.2012 36.877 40.3608C38.1741 40.908 39.3946 40.9469 39.6046 40.4501C39.8126 39.9533 38.9324 39.1078 37.6353 38.5627ZM15.0087 27.5546C14.994 27.5546 14.9804 27.5546 14.9657 27.5546C14.9079 27.5504 14.8533 27.5336 14.7976 27.5157C14.3282 27.3603 13.9395 26.6912 13.6707 25.685C13.5961 25.4025 13.5299 25.0969 13.4753 24.766C13.427 24.4761 13.386 24.1726 13.3545 23.8512C13.2621 22.907 13.2442 21.8346 13.3178 20.7035C13.5572 17.0421 14.6621 14.1244 15.7996 14.1244C15.8143 14.1244 15.828 14.1244 15.8427 14.1255C16.7585 14.1853 17.4108 16.1399 17.519 18.8014C17.5284 19.0335 17.5337 19.2688 17.5347 19.5114C17.5358 19.7519 17.5326 19.9956 17.5253 20.2445C17.5179 20.485 17.5064 20.7287 17.4906 20.9765C17.291 24.0287 16.4897 26.5557 15.5696 27.3161C15.3858 27.4684 15.1978 27.5546 15.0087 27.5546ZM17.4423 26.3341C18.0693 24.8553 18.4201 22.8713 18.5398 21.0448C18.5735 20.5092 18.5903 19.9031 18.5787 19.2698C20.5722 17.5305 22.5037 16.454 23.6254 16.454C23.9342 16.454 24.181 16.5348 24.3511 16.705C25.0317 17.3856 24.2871 19.2982 22.6444 21.4439C22.0909 22.1655 21.4366 22.9143 20.7003 23.6517C19.7204 24.6326 18.7247 25.455 17.7941 26.0978C17.6755 26.1797 17.5589 26.2585 17.4423 26.3341ZM25.622 25.1483C22.678 26.5746 19.8979 27.1996 18.5819 26.8299C19.6017 26.103 20.5974 25.2408 21.4439 24.3942C22.4533 23.3849 23.6716 21.9596 24.5381 20.5249C27.8854 19.0766 30.8336 18.7237 31.3461 19.7824C31.908 20.9398 29.3453 23.3418 25.622 25.1483Z" fill="white"/>
<path d="M7.94549 42.9152C8.56152 42.9152 9.06091 42.6895 9.06091 42.411C9.06091 42.1326 8.56152 41.9069 7.94549 41.9069C7.32947 41.9069 6.83008 42.1326 6.83008 42.411C6.83008 42.6895 7.32947 42.9152 7.94549 42.9152Z" fill="white"/>
<path d="M40.7494 41.9037C41.3655 41.9037 41.8649 41.678 41.8649 41.3996C41.8649 41.1212 41.3655 40.8954 40.7494 40.8954C40.1334 40.8954 39.634 41.1212 39.634 41.3996C39.634 41.678 40.1334 41.9037 40.7494 41.9037Z" fill="white"/>
<path d="M35.9758 45C36.5919 45 37.0913 44.7738 37.0913 44.4948C37.0913 44.2158 36.5919 43.9896 35.9758 43.9896C35.3598 43.9896 34.8604 44.2158 34.8604 44.4948C34.8604 44.7738 35.3598 45 35.9758 45Z" fill="white"/>
<path d="M32.5403 43.4214C33.1569 43.4214 33.6568 43.1952 33.6568 42.9162C33.6568 42.6372 33.1569 42.411 32.5403 42.411C31.9237 42.411 31.4239 42.6372 31.4239 42.9162C31.4239 43.1952 31.9237 43.4214 32.5403 43.4214Z" fill="white"/>
<path d="M35.9758 42.9152C36.5919 42.9152 37.0913 42.6895 37.0913 42.411C37.0913 42.1326 36.5919 41.9069 35.9758 41.9069C35.3598 41.9069 34.8604 42.1326 34.8604 42.411C34.8604 42.6895 35.3598 42.9152 35.9758 42.9152Z" fill="white"/>
<path d="M4.2516 42.9152C4.86763 42.9152 5.36702 42.6895 5.36702 42.411C5.36702 42.1326 4.86763 41.9069 4.2516 41.9069C3.63557 41.9069 3.13618 42.1326 3.13618 42.411C3.13618 42.6895 3.63557 42.9152 4.2516 42.9152Z" fill="white"/>
</g>
<defs>
<clipPath id="clip0_6_11">
<rect width="45" height="45" fill="white"/>
</clipPath>
</defs>
</svg>
